<svg width="17" height="12" viewBox="0 0 17 12" fill="none" xmlns="http://www.w3.org/2000/svg">
<path fill-rule="evenodd" clip-rule="evenodd" d="M16 0.666504H15C14.4477 0.666504 14 1.11422 14 1.6665V10.3332C14 10.8855 14.4477 11.3332 15 11.3332H16C16.5523 11.3332 17 10.8855 17 10.3332V1.6665C17 1.11422 16.5523 0.666504 16 0.666504ZM10.3333 2.99984H11.3333C11.8856 2.99984 12.3333 3.44755 12.3333 3.99984V10.3332C12.3333 10.8855 11.8856 11.3332 11.3333 11.3332H10.3333C9.78105 11.3332 9.33333 10.8855 9.33333 10.3332V3.99984C9.33333 3.44755 9.78105 2.99984 10.3333 2.99984ZM6.66667 5.33317H5.66667C5.11438 5.33317 4.66667 5.78089 4.66667 6.33317V10.3332C4.66667 10.8855 5.11438 11.3332 5.66667 11.3332H6.66667C7.21895 11.3332 7.66667 10.8855 7.66667 10.3332V6.33317C7.66667 5.78089 7.21895 5.33317 6.66667 5.33317ZM2 7.33317H1C0.447715 7.33317 0 7.78089 0 8.33317V10.3332C0 10.8855 0.447715 11.3332 1 11.3332H2C2.55228 11.3332 3 10.8855 3 10.3332V8.33317C3 7.78089 2.55228 7.33317 2 7.33317Z" fill="#333333"/>
</svg>
