<svg width="48" height="48" viewBox="0 0 48 48" fill="none" xmlns="http://www.w3.org/2000/svg">
<path fill-rule="evenodd" clip-rule="evenodd" d="M26.8285 24.0005L37.4145 13.4145C38.1965 12.6325 38.1965 11.3685 37.4145 10.5865C36.6325 9.8045 35.3685 9.8045 34.5865 10.5865L24.0005 21.1725L13.4145 10.5865C12.6325 9.8045 11.3685 9.8045 10.5865 10.5865C9.8045 11.3685 9.8045 12.6325 10.5865 13.4145L21.1725 24.0005L10.5865 34.5865C9.8045 35.3685 9.8045 36.6325 10.5865 37.4145C10.9765 37.8045 11.4885 38.0005 12.0005 38.0005C12.5125 38.0005 13.0245 37.8045 13.4145 37.4145L24.0005 26.8285L34.5865 37.4145C34.9765 37.8045 35.4885 38.0005 36.0005 38.0005C36.5125 38.0005 37.0245 37.8045 37.4145 37.4145C38.1965 36.6325 38.1965 35.3685 37.4145 34.5865L26.8285 24.0005Z" fill="white"/>
</svg>
