<svg width="32" height="32" viewBox="0 0 32 32" fill="none" xmlns="http://www.w3.org/2000/svg">
<g clip-path="url(#clip0_501_2832)">
<path d="M22.6663 23.006C22.6663 23.6477 22.146 24.1668 21.5055 24.1668H12.1605C11.8526 24.1668 11.5574 24.0445 11.3397 23.8268C11.122 23.6091 10.9997 23.3139 10.9997 23.006C10.9997 22.6981 11.122 22.4029 11.3397 22.1852C11.5574 21.9675 11.8526 21.8452 12.1605 21.8452H21.5055C22.1472 21.8452 22.6663 22.3643 22.6663 23.006ZM22.6663 16.0002C22.6663 16.6418 22.146 17.161 21.5055 17.161H0.493841C0.185969 17.161 -0.109293 17.0387 -0.326992 16.821C-0.54469 16.6033 -0.666992 16.308 -0.666992 16.0002C-0.666992 15.6923 -0.54469 15.397 -0.326992 15.1793C-0.109293 14.9616 0.185969 14.8393 0.493841 14.8393H21.5055C22.1472 14.8393 22.6663 15.3597 22.6663 16.0002ZM21.5055 10.1552C21.8134 10.1552 22.1086 10.0329 22.3263 9.81516C22.544 9.59746 22.6663 9.3022 22.6663 8.99433C22.6663 8.68646 22.544 8.39119 22.3263 8.1735C22.1086 7.9558 21.8134 7.8335 21.5055 7.8335H7.49384C7.3414 7.8335 7.19045 7.86352 7.04961 7.92186C6.90877 7.9802 6.7808 8.0657 6.67301 8.1735C6.56522 8.28129 6.47971 8.40926 6.42137 8.5501C6.36303 8.69094 6.33301 8.84189 6.33301 8.99433C6.33301 9.14677 6.36303 9.29772 6.42137 9.43856C6.47971 9.5794 6.56522 9.70737 6.67301 9.81516C6.7808 9.92296 6.90877 10.0085 7.04961 10.0668C7.19045 10.1251 7.3414 10.1552 7.49384 10.1552H21.5055Z" fill="#2E2E2E"/>
</g>
<defs>
<clipPath id="clip0_501_2832">
<rect width="32" height="32" fill="white"/>
</clipPath>
</defs>
</svg>
