<svg width="428" height="40" viewBox="0 0 428 40" fill="none" xmlns="http://www.w3.org/2000/svg">
<path fill-rule="evenodd" clip-rule="evenodd" d="M0 0H33.6578C14.5803 3.03917 0 19.5669 0 39.5V0ZM323 0H104L104.892 0.216238C106.78 0.67396 108.333 2.08608 109.004 3.9C109.037 3.98943 109.046 4.08563 109.046 4.18098L109.039 7.96098C109.039 20.7025 119.337 31 132.039 31H294.961C307.664 31 317.961 20.7025 317.961 8L317.954 4.18082C317.954 4.08452 317.969 3.99048 318.002 3.9C318.668 2.07301 320.211 0.676168 322.108 0.216238L323 0ZM428 39.5V0H394.342C413.42 3.03917 428 19.5669 428 39.5Z" fill="black"/>
</svg>
