<svg width="16" height="16" viewBox="0 0 16 16" fill="none" xmlns="http://www.w3.org/2000/svg">
<path fill-rule="evenodd" clip-rule="evenodd" d="M7.33301 1.33337C10.6467 1.33337 13.333 4.01967 13.333 7.33337C13.333 8.74989 12.8421 10.0518 12.0212 11.0782L14.4711 13.5286C14.7314 13.789 14.7314 14.2111 14.4711 14.4714C14.2308 14.7118 13.8526 14.7303 13.5911 14.5269L13.5283 14.4714L11.0778 12.0216C10.0514 12.8425 8.74953 13.3334 7.33301 13.3334C4.0193 13.3334 1.33301 10.6471 1.33301 7.33337C1.33301 4.01967 4.0193 1.33337 7.33301 1.33337ZM7.33301 2.66671C4.75568 2.66671 2.66634 4.75605 2.66634 7.33337C2.66634 9.9107 4.75568 12 7.33301 12C9.91034 12 11.9997 9.9107 11.9997 7.33337C11.9997 4.75605 9.91034 2.66671 7.33301 2.66671Z" fill="#91978C"/>
</svg>
