<svg width="16" height="16" viewBox="0 0 16 16" fill="none" xmlns="http://www.w3.org/2000/svg">
<path fill-rule="evenodd" clip-rule="evenodd" d="M7.33301 1.33325C10.6467 1.33325 13.333 4.01954 13.333 7.33325C13.333 8.74977 12.8421 10.0516 12.0212 11.078L14.4711 13.5285C14.7314 13.7889 14.7314 14.211 14.4711 14.4713C14.2308 14.7116 13.8526 14.7301 13.5911 14.5268L13.5283 14.4713L11.0778 12.0215C10.0514 12.8424 8.74953 13.3333 7.33301 13.3333C4.0193 13.3333 1.33301 10.647 1.33301 7.33325C1.33301 4.01954 4.0193 1.33325 7.33301 1.33325ZM7.33301 2.66659C4.75568 2.66659 2.66634 4.75592 2.66634 7.33325C2.66634 9.91058 4.75568 11.9999 7.33301 11.9999C9.91034 11.9999 11.9997 9.91058 11.9997 7.33325C11.9997 4.75592 9.91034 2.66659 7.33301 2.66659Z" fill="#91978C"/>
</svg>
