<svg width="16" height="16" viewBox="0 0 16 16" fill="none" xmlns="http://www.w3.org/2000/svg">
<path fill-rule="evenodd" clip-rule="evenodd" d="M8.00033 2.66675C8.36852 2.66675 8.66699 2.96522 8.66699 3.33341V7.33342H12.667C13.0352 7.33342 13.3337 7.63189 13.3337 8.00008C13.3337 8.36827 13.0352 8.66675 12.667 8.66675H8.66699V12.6667C8.66699 13.0349 8.36852 13.3334 8.00033 13.3334C7.63214 13.3334 7.33366 13.0349 7.33366 12.6667V8.66675H3.33366C2.96547 8.66675 2.66699 8.36827 2.66699 8.00008C2.66699 7.63189 2.96547 7.33342 3.33366 7.33342H7.33366V3.33341C7.33366 2.96522 7.63214 2.66675 8.00033 2.66675Z" fill="white"/>
</svg>
