<svg width="40" height="40" viewBox="0 0 40 40" fill="none" xmlns="http://www.w3.org/2000/svg">
<path d="M15 5H6.66667C5.74619 5 5 5.74619 5 6.66667V15C5 15.9205 5.74619 16.6667 6.66667 16.6667H15C15.9205 16.6667 16.6667 15.9205 16.6667 15V6.66667C16.6667 5.74619 15.9205 5 15 5Z" stroke="#6DEB51" stroke-width="2" stroke-linecap="round" stroke-linejoin="round"/>
<path d="M15 23.3335H6.66667C5.74619 23.3335 5 24.0797 5 25.0002V33.3335C5 34.254 5.74619 35.0002 6.66667 35.0002H15C15.9205 35.0002 16.6667 34.254 16.6667 33.3335V25.0002C16.6667 24.0797 15.9205 23.3335 15 23.3335Z" stroke="#6DEB51" stroke-width="2" stroke-linecap="round" stroke-linejoin="round"/>
<path d="M33.333 5H24.9997C24.0792 5 23.333 5.74619 23.333 6.66667V15C23.333 15.9205 24.0792 16.6667 24.9997 16.6667H33.333C34.2535 16.6667 34.9997 15.9205 34.9997 15V6.66667C34.9997 5.74619 34.2535 5 33.333 5Z" stroke="#6DEB51" stroke-width="2" stroke-linecap="round" stroke-linejoin="round"/>
<path d="M33.333 23.333H24.9997C24.0792 23.333 23.333 24.0792 23.333 24.9997V33.333C23.333 34.2535 24.0792 34.9997 24.9997 34.9997H33.333C34.2535 34.9997 34.9997 34.2535 34.9997 33.333V24.9997C34.9997 24.0792 34.2535 23.333 33.333 23.333Z" stroke="#6DEB51" stroke-width="2" stroke-linecap="round" stroke-linejoin="round"/>
</svg>
