<svg width="25" height="11" viewBox="0 0 25 11" fill="none" xmlns="http://www.w3.org/2000/svg">
<g opacity="0.5">
<path fill-rule="evenodd" clip-rule="evenodd" d="M0 2.5C0 1.11929 1.11929 0 2.5 0H19.5C20.8807 0 22 1.11929 22 2.5V8C22 9.38071 20.8807 10.5 19.5 10.5H2.5C1.11929 10.5 0 9.38071 0 8V2.5ZM2.5 1H19.5C20.3284 1 21 1.67157 21 2.5V8C21 8.82843 20.3284 9.5 19.5 9.5H2.5C1.67157 9.5 1 8.82843 1 8V2.5C1 1.67157 1.67157 1 2.5 1Z" fill="#2E2E2E"/>
<path d="M24.5 5.43699C24.5 6.36891 23.8626 7.15196 23 7.37398V3.5C23.8626 3.72202 24.5 4.50507 24.5 5.43699Z" fill="#2E2E2E"/>
</g>
</svg>
