<svg width="16" height="16" viewBox="0 0 16 16" fill="none" xmlns="http://www.w3.org/2000/svg">
<path d="M13.333 1.33325H6.66634C5.93101 1.33325 5.33301 1.93125 5.33301 2.66659V5.33325H2.66634C1.93101 5.33325 1.33301 5.93125 1.33301 6.66658V13.3333C1.33301 14.0686 1.93101 14.6666 2.66634 14.6666H9.33301C10.0683 14.6666 10.6663 14.0686 10.6663 13.3333V10.6666H13.333C14.0683 10.6666 14.6663 10.0686 14.6663 9.33325V2.66659C14.6663 1.93125 14.0683 1.33325 13.333 1.33325ZM2.66634 13.3333V6.66658H9.33301L9.33434 13.3333H2.66634ZM13.333 9.33325H10.6663V6.66658C10.6663 5.93125 10.0683 5.33325 9.33301 5.33325H6.66634V2.66659H13.333V9.33325Z" fill="#B3B9AD"/>
</svg>
