<svg width="38" height="38" viewBox="0 0 38 38" fill="none" xmlns="http://www.w3.org/2000/svg">
<path d="M6.00875 21.5508L7.11787 23.7358C6.35787 24.4839 5.9375 25.2985 5.9375 26.125C5.9375 29.1793 11.7016 32.0625 19 32.0625C26.2984 32.0625 32.0625 29.1793 32.0625 26.125C32.0625 25.2985 31.6398 24.4863 30.8821 23.7382L32.0126 21.5698C33.5445 22.8523 34.4375 24.4055 34.4375 26.125C34.4375 30.9392 27.4407 34.4375 19 34.4375C10.5593 34.4375 3.5625 30.9392 3.5625 26.125C3.5625 24.396 4.465 22.838 6.00875 21.5508V21.5508Z" fill="#6DEB51"/>
<path d="M6.00875 14.4258L7.11787 16.6108C6.35787 17.3613 5.9375 18.1759 5.9375 19C5.9375 22.0543 11.7016 24.9375 19 24.9375C26.2984 24.9375 32.0625 22.0543 32.0625 19C32.0625 18.1735 31.6398 17.3613 30.8821 16.6132L32.0126 14.4448C33.5445 15.7273 34.4375 17.2805 34.4375 19C34.4375 23.8142 27.4407 27.3125 19 27.3125C10.5593 27.3125 3.5625 23.8142 3.5625 19C3.5625 17.271 4.465 15.713 6.00875 14.4258V14.4258Z" fill="#6DEB51"/>
<path d="M19 20.1875C10.5593 20.1875 3.5625 16.6891 3.5625 11.875C3.5625 7.06088 10.5593 3.5625 19 3.5625C27.4407 3.5625 34.4375 7.06088 34.4375 11.875C34.4375 16.6891 27.4407 20.1875 19 20.1875ZM19 17.8125C26.2984 17.8125 32.0625 14.9293 32.0625 11.875C32.0625 8.82075 26.2984 5.9375 19 5.9375C11.7016 5.9375 5.9375 8.82075 5.9375 11.875C5.9375 14.9293 11.7016 17.8125 19 17.8125Z" fill="#6DEB51"/>
</svg>
