<svg width="40" height="40" viewBox="0 0 40 40" fill="none" xmlns="http://www.w3.org/2000/svg">
<path d="M20 7.5C22.4723 7.5 24.889 8.23311 26.9446 9.60663C29.0002 10.9801 30.6024 12.9324 31.5485 15.2165C32.4946 17.5005 32.7421 20.0139 32.2598 22.4386C31.7775 24.8634 30.587 27.0907 28.8388 28.8388C27.0907 30.587 24.8634 31.7775 22.4386 32.2598C20.0139 32.7421 17.5005 32.4946 15.2165 31.5485C12.9324 30.6024 10.9801 29.0002 9.60663 26.9446C8.23311 24.889 7.5 22.4723 7.5 20C7.5 19.6685 7.3683 19.3505 7.13388 19.1161C6.89946 18.8817 6.58152 18.75 6.25 18.75C5.91848 18.75 5.60054 18.8817 5.36612 19.1161C5.1317 19.3505 5 19.6685 5 20C4.99992 23.4345 6.17847 26.765 8.33872 29.4351C10.499 32.1051 13.5101 33.953 16.8689 34.6699C20.2278 35.3868 23.7309 34.9294 26.7931 33.374C29.8552 31.8186 32.2908 29.2595 33.693 26.1242C35.0952 22.989 35.3789 19.4675 34.4969 16.1482C33.6149 12.8288 31.6205 9.91273 28.847 7.88706C26.0734 5.8614 22.6887 4.84888 19.2584 5.01868C15.8281 5.18849 12.5599 6.53032 10 8.82V6.25C10 5.91848 9.8683 5.60054 9.63388 5.36612C9.39946 5.1317 9.08152 5 8.75 5C8.41848 5 8.10054 5.1317 7.86612 5.36612C7.6317 5.60054 7.5 5.91848 7.5 6.25V13.75C7.5 14.0815 7.6317 14.3995 7.86612 14.6339C8.10054 14.8683 8.41848 15 8.75 15H13.75C14.0815 15 14.3995 14.8683 14.6339 14.6339C14.8683 14.3995 15 14.0815 15 13.75C15 13.4185 14.8683 13.1005 14.6339 12.8661C14.3995 12.6317 14.0815 12.5 13.75 12.5H10C11.1633 10.9464 12.6728 9.68551 14.4088 8.81754C16.1447 7.94958 18.0592 7.49844 20 7.5ZM20.0025 13.75C20.0025 13.4185 19.8708 13.1005 19.6364 12.8661C19.402 12.6317 19.084 12.5 18.7525 12.5C18.421 12.5 18.103 12.6317 17.8686 12.8661C17.6342 13.1005 17.5025 13.4185 17.5025 13.75V21.25C17.5025 21.5815 17.6342 21.8995 17.8686 22.1339C18.103 22.3683 18.421 22.5 18.7525 22.5H23.7525C24.084 22.5 24.402 22.3683 24.6364 22.1339C24.8708 21.8995 25.0025 21.5815 25.0025 21.25C25.0025 20.9185 24.8708 20.6005 24.6364 20.3661C24.402 20.1317 24.084 20 23.7525 20H20.0025V13.75Z" fill="#6DEB51"/>
</svg>
