<svg width="32" height="32" viewBox="0 0 32 32" fill="none" xmlns="http://www.w3.org/2000/svg">
<g clip-path="url(#clip0_502_3394)">
<path d="M22.6663 23.0058C22.6663 23.6474 22.146 24.1666 21.5055 24.1666H12.1605C11.8526 24.1666 11.5574 24.0443 11.3397 23.8266C11.122 23.6089 10.9997 23.3136 10.9997 23.0058C10.9997 22.6979 11.122 22.4026 11.3397 22.1849C11.5574 21.9672 11.8526 21.8449 12.1605 21.8449H21.5055C22.1472 21.8449 22.6663 22.3641 22.6663 23.0058V23.0058ZM22.6663 15.9999C22.6663 16.6416 22.146 17.1608 21.5055 17.1608H0.493841C0.185969 17.1608 -0.109293 17.0385 -0.326992 16.8208C-0.54469 16.6031 -0.666992 16.3078 -0.666992 15.9999C-0.666992 15.692 -0.54469 15.3968 -0.326992 15.1791C-0.109293 14.9614 0.185969 14.8391 0.493841 14.8391H21.5055C22.1472 14.8391 22.6663 15.3594 22.6663 15.9999V15.9999ZM21.5055 10.1549C21.8134 10.1549 22.1086 10.0326 22.3263 9.81492C22.544 9.59722 22.6663 9.30196 22.6663 8.99409C22.6663 8.68621 22.544 8.39095 22.3263 8.17325C22.1086 7.95555 21.8134 7.83325 21.5055 7.83325H7.49384C7.3414 7.83325 7.19045 7.86328 7.04961 7.92162C6.90877 7.97995 6.7808 8.06546 6.67301 8.17325C6.56521 8.28105 6.47971 8.40902 6.42137 8.54985C6.36303 8.69069 6.33301 8.84164 6.33301 8.99409C6.33301 9.14653 6.36303 9.29748 6.42137 9.43832C6.47971 9.57916 6.56521 9.70713 6.67301 9.81492C6.7808 9.92271 6.90877 10.0082 7.04961 10.0666C7.19045 10.1249 7.3414 10.1549 7.49384 10.1549H21.5055Z" fill="#2E2E2E"/>
</g>
<defs>
<clipPath id="clip0_502_3394">
<rect width="32" height="32" fill="white"/>
</clipPath>
</defs>
</svg>
