<svg width="32" height="32" viewBox="0 0 32 32" fill="none" xmlns="http://www.w3.org/2000/svg">
<path d="M10.1104 14.8658C8.87752 14.8658 7.82531 14.4301 6.95378 13.5586C6.08225 12.687 5.64648 11.6348 5.64648 10.4019C5.64648 9.16902 6.08225 8.11681 6.95378 7.24528C7.82531 6.37375 8.87752 5.93799 10.1104 5.93799C11.3433 5.93799 12.3955 6.37375 13.267 7.24528C14.1386 8.11681 14.5743 9.16902 14.5743 10.4019C14.5743 11.6348 14.1386 12.687 13.267 13.5586C12.3955 14.4301 11.3433 14.8658 10.1104 14.8658ZM10.1104 12.315C10.6418 12.315 11.0933 12.1288 11.4649 11.7564C11.8373 11.3848 12.0235 10.9333 12.0235 10.4019C12.0235 9.8705 11.8373 9.419 11.4649 9.04743C11.0933 8.67501 10.6418 8.4888 10.1104 8.4888C9.57899 8.4888 9.1275 8.67501 8.75593 9.04743C8.38351 9.419 8.1973 9.8705 8.1973 10.4019C8.1973 10.9333 8.38351 11.3848 8.75593 11.7564C9.1275 12.1288 9.57899 12.315 10.1104 12.315ZM21.5891 26.3445C20.3562 26.3445 19.304 25.9088 18.4325 25.0372C17.5609 24.1657 17.1252 23.1135 17.1252 21.8806C17.1252 20.6477 17.5609 19.5955 18.4325 18.724C19.304 17.8524 20.3562 17.4167 21.5891 17.4167C22.822 17.4167 23.8742 17.8524 24.7457 18.724C25.6173 19.5955 26.053 20.6477 26.053 21.8806C26.053 23.1135 25.6173 24.1657 24.7457 25.0372C23.8742 25.9088 22.822 26.3445 21.5891 26.3445ZM21.5891 23.7937C22.1205 23.7937 22.572 23.6075 22.9436 23.2351C23.316 22.8635 23.5022 22.412 23.5022 21.8806C23.5022 21.3492 23.316 20.8977 22.9436 20.5261C22.572 20.1537 22.1205 19.9675 21.5891 19.9675C21.0577 19.9675 20.6062 20.1537 20.2346 20.5261C19.8622 20.8977 19.676 21.3492 19.676 21.8806C19.676 22.412 19.8622 22.8635 20.2346 23.2351C20.6062 23.6075 21.0577 23.7937 21.5891 23.7937ZM7.43206 26.3445L5.64648 24.5589L24.2674 5.93799L26.053 7.72356L7.43206 26.3445Z" fill="white"/>
</svg>
