<svg width="270" height="270" viewBox="0 0 270 270" fill="none" xmlns="http://www.w3.org/2000/svg">
<g clip-path="url(#clip0_236_2206)">
<rect x="12" y="12" width="246" height="246" rx="8" fill="white"/>
<path d="M12 12V97.1538H97.1538V12H12ZM116.077 12V30.9231H135V12H116.077ZM135 30.9231V49.8462H116.077V87.6923H135V68.7692H153.923V30.9231H135ZM135 87.6923V116.077H49.8462V135H30.9231V153.923H68.7692V135H87.6923V153.923H135V135H153.923V153.923H182.308V135H201.231V116.077H153.923V87.6923H135ZM201.231 135V153.923H258V135H239.077V116.077H220.154V135H201.231ZM30.9231 135V116.077H12V135H30.9231ZM172.846 12V97.1538H258V12H172.846ZM30.9231 30.9231H78.2308V78.2308H30.9231V30.9231ZM191.769 30.9231H239.077V78.2308H191.769V30.9231ZM40.3846 40.3846V68.7692H68.7692V40.3846H40.3846ZM201.231 40.3846V68.7692H229.615V40.3846H201.231ZM116.077 163.385V182.308H135V163.385H116.077ZM135 182.308V201.231H116.077V239.077H135V220.154H172.846V201.231H191.769V182.308H210.692V201.231H191.769V220.154H172.846V258H191.769V239.077H210.692V220.154H220.154V239.077H210.692V258H229.615V239.077H239.077V220.154H258V182.308H239.077V163.385H172.846V182.308H135ZM239.077 239.077V258H258V239.077H239.077ZM135 239.077V258H153.923V239.077H135ZM12 172.846V258H97.1538V172.846H12ZM30.9231 191.769H78.2308V239.077H30.9231V191.769ZM40.3846 201.231V229.615H68.7692V201.231H40.3846Z" fill="black"/>
</g>
<rect x="6" y="6" width="258" height="258" rx="14" stroke="white" stroke-width="12"/>
<defs>
<clipPath id="clip0_236_2206">
<rect x="12" y="12" width="246" height="246" rx="8" fill="white"/>
</clipPath>
</defs>
</svg>
