<svg width="43" height="43" viewBox="0 0 43 43" fill="none" xmlns="http://www.w3.org/2000/svg">
<path d="M25.5498 7.34675L32.0334 13.8289C32.2166 14.012 32.328 14.2549 32.3473 14.5132C32.3666 14.7716 32.2926 15.0283 32.1387 15.2367L32.0348 15.3593L25.5513 21.8558C25.3582 22.0481 25.0997 22.1604 24.8275 22.1704C24.5552 22.1803 24.2892 22.0872 24.0826 21.9096C23.876 21.732 23.7441 21.4829 23.7131 21.2123C23.6821 20.9416 23.7544 20.6692 23.9156 20.4495L24.0194 20.3283L28.6596 15.6795H11.7893C11.5284 15.6792 11.2763 15.5845 11.0797 15.413C10.883 15.2415 10.7549 15.0047 10.7191 14.7462L10.709 14.6006C10.709 14.3391 10.8037 14.0866 10.9755 13.8896C11.1473 13.6925 11.3847 13.5644 11.6437 13.5289L11.7908 13.5188L28.6639 13.5173L24.0223 8.87713C23.8391 8.69396 23.7277 8.45113 23.7084 8.19279C23.6891 7.93444 23.7631 7.67774 23.917 7.46935L24.0223 7.34819C24.2055 7.16498 24.4483 7.05359 24.7067 7.03426C24.965 7.01494 25.2217 7.08897 25.4301 7.2429L25.5513 7.34819L32.0348 13.8303L25.5513 7.34819L25.5498 7.34675ZM32.355 28.1605L32.3651 28.3048C32.3655 28.5664 32.271 28.8194 32.0991 29.0167C31.9272 29.214 31.6897 29.3423 31.4305 29.3779L31.2833 29.388L14.4131 29.3866L19.059 34.0311C19.2422 34.2143 19.3536 34.4571 19.3729 34.7154C19.3923 34.9738 19.3182 35.2305 19.1643 35.4389L19.0605 35.56C18.8772 35.7436 18.6341 35.8553 18.3754 35.8746C18.1167 35.8939 17.8597 35.8196 17.6512 35.6653L17.5301 35.5615L11.0393 29.075C10.8561 28.8919 10.7447 28.649 10.7254 28.3907C10.706 28.1323 10.7801 27.8756 10.934 27.6672L11.0393 27.5461L17.5301 21.0495C17.7234 20.8577 17.9819 20.7459 18.254 20.7363C18.5261 20.7267 18.7918 20.8201 18.9981 20.9978C19.2044 21.1755 19.3361 21.4245 19.3669 21.695C19.3977 21.9656 19.3254 22.2378 19.1643 22.4573L19.0605 22.5785L14.4188 27.223H31.2833C31.5452 27.2231 31.7981 27.3182 31.9952 27.4906C32.1923 27.663 32.3201 27.901 32.355 28.1605L32.3651 28.3048L32.355 28.1605Z" fill="white"/>
</svg>
