<svg width="301" height="313" viewBox="0 0 301 313" fill="none" xmlns="http://www.w3.org/2000/svg">
<path d="M2 311H13.0613C14.0545 311 14.9338 310.358 15.2362 309.412L23.7562 282.753C23.8804 282.365 24.1063 282.017 24.4105 281.745L37.4122 270.137C37.6608 269.915 37.955 269.75 38.2741 269.654L54.9867 264.618C55.3928 264.496 55.7568 264.263 56.0378 263.945L65.4413 253.32L83.4637 234.15C83.7819 233.812 84.1956 233.578 84.6498 233.481L106.982 228.705C107.305 228.636 107.61 228.497 107.875 228.299L118.169 220.577C118.361 220.433 118.574 220.321 118.801 220.243L129.517 216.581C130.151 216.365 130.657 215.881 130.903 215.257L141.676 187.902C141.806 187.572 142.011 187.277 142.275 187.039L155.844 174.865C155.978 174.745 156.097 174.609 156.199 174.461L179.233 141.043L191.276 124.5C191.461 124.245 191.697 124.031 191.969 123.872L208.81 114.023L218.76 107.192C219.113 106.949 219.392 106.612 219.562 106.219L229.029 84.4L244.6 48.5958C244.859 48.0002 245.36 47.5431 245.976 47.3389L262.35 41.9159C262.543 41.852 262.726 41.7626 262.895 41.6501L278.311 31.4068C278.516 31.2705 278.698 31.1019 278.849 30.9076L291.845 14.2113L299 2" stroke="#6DEB51" stroke-width="3" stroke-linecap="round"/>
</svg>
